<?xml version="1.0" encoding="UTF-8"?><svg xmlns="http://www.w3.org/2000/svg" viewBox="0 0 209.97 48.14"><defs><style>.d{fill:#467264;}</style></defs><g id="a"/><g id="b"><g id="c"><path class="d" d="M157.65,41.96c.48,0,.68,0,.68-.75V16.44c0-.75-.2-.75-.68-.75h-.54c-3.26,0-3.6-1.56-3.6-3.12,0-1.29,.68-2.99,3.6-2.99h8.96c2.92,0,3.73,1.9,3.73,2.99,0,1.56-1.02,3.12-3.73,3.12h-.41c-.47,0-.68,0-.68,.75v24.77c0,.75,.2,.75,.68,.75h.41c2.92,0,3.73,1.9,3.73,3.05,0,1.42-1.02,3.12-3.73,3.12h-8.96c-3.19,0-3.6-1.56-3.6-3.12,0-1.36,.68-3.05,3.6-3.05h.54Z"/><path class="d" d="M180.38,28.46c0,7.4,4,13.37,12.69,13.37,4.41,0,8.15-2.58,10.52-5.5,1.7-2.1,3.46-2.24,4.89-1.42,.81,.54,1.49,1.29,1.49,2.58,0,.81-.34,1.7-1.09,2.71-4.55,5.7-10.32,7.94-15.81,7.94-11.81,0-19.55-7.47-19.55-19.68s7.06-19.82,19.34-19.82c5.97,0,11.33,2.24,15.88,7.94,.82,1.02,1.02,1.97,1.02,2.71,0,1.29-.68,2.04-1.49,2.58-1.42,.81-3.19,.68-4.89-1.43-2.38-2.92-6.24-5.57-10.66-5.57-6.92,0-12.35,4.95-12.35,13.57Z"/><path class="d" d="M6.85,28.46c0,7.4,4,13.37,12.69,13.37,4.41,0,8.15-2.58,10.52-5.5,1.7-2.1,3.46-2.24,4.89-1.42,.81,.54,1.49,1.29,1.49,2.58,0,.81-.34,1.7-1.09,2.71-4.55,5.7-10.32,7.94-15.81,7.94C7.74,48.14,0,40.67,0,28.46S7.06,8.64,19.34,8.64c5.97,0,11.33,2.24,15.88,7.94,.82,1.02,1.02,1.97,1.02,2.71,0,1.29-.68,2.04-1.49,2.58-1.42,.81-3.19,.68-4.89-1.43-2.38-2.92-6.24-5.57-10.66-5.57-6.92,0-12.35,4.95-12.35,13.57Z"/><path class="d" d="M109.06,45.02V24.93c0-1.02-.2-1.02-.68-.14l-6.85,12.76c-.54,1.02-1.56,2.24-2.92,2.24-1.56,0-2.24-1.09-2.85-2.24l-6.99-13.1c-.34-.75-.61-.68-.61,.07v20.56c0,1.97-1.56,3.05-3.26,3.05-2.1,0-3.33-1.49-3.33-3.05V11.96c0-1.97,1.63-3.32,3.46-3.32,1.09,0,2.38-.07,3.39,1.9l9.5,18.66c.2,.47,.41,.88,.68,.88,.2,0,.41-.41,.68-.88l9.57-18.53c.75-1.29,1.56-2.04,3.12-2.04,2.17,0,3.73,1.83,3.73,3.66V44.88c0,2.1-1.29,3.26-3.26,3.26-2.1,0-3.39-1.22-3.39-3.12Z"/><path class="d" d="M121.95,44.68V12.57c0-2.38,1.7-3.46,3.33-3.46h11.13c9.3,0,14.25,5.23,14.25,13.44,0,8.96-6.58,13.3-14.25,13.3h-6.04c-.81,0-1.76,.41-1.76,1.49v7.33c0,2.92-2.24,3.46-3.33,3.46-1.56,0-3.33-.81-3.33-3.46Zm6.65-17.37c0,1.29,.61,1.9,1.83,1.9h5.63c5.23,0,8.01-2.51,8.01-6.65,0-3.53-1.76-6.85-8.01-6.85h-5.97c-.88,0-1.49,0-1.49,1.36v10.25Z"/><g><rect class="d" x="49.87" y="-2.35" width="6.54" height="52.84" rx="3.27" ry="3.27" transform="translate(15.97 -20.89) rotate(26.05)"/><rect class="d" x="59.37" y="-2.35" width="6.54" height="52.84" rx="3.27" ry="3.27" transform="translate(129.49 18.18) rotate(153.95)"/><path class="d" d="M60.78,43.72c0,1.89-1.53,3.42-3.42,3.42s-3.42-1.53-3.42-3.42,1.53-5.93,3.42-5.93,3.42,4.04,3.42,5.93Z"/></g></g></g></svg>